<svg width="44" height="44" viewBox="0 0 44 44" fill="none" xmlns="http://www.w3.org/2000/svg">
<circle cx="22" cy="22" r="22" fill="#F74D4A"/>
<path d="M24.8406 26.3168C24.7617 26.2215 24.6441 26.1666 24.5204 26.1666H19.4797C19.356 26.1666 19.2384 26.2215 19.1594 26.3168C19.0801 26.412 19.0475 26.5373 19.0699 26.659C19.6689 29.9036 20.8192 32 22 32C23.1808 32 24.3311 29.9036 24.9301 26.659C24.9525 26.5373 24.9199 26.412 24.8406 26.3168Z" fill="white"/>
<path d="M31.5249 18.9564C31.47 18.7838 31.3097 18.6666 31.1282 18.6666H26.4362C26.3187 18.6666 26.2064 18.7163 26.1274 18.8037C26.0481 18.8912 26.0098 19.008 26.0216 19.1252C26.1181 20.0822 26.1669 21.0498 26.1669 21.9999C26.1669 22.9501 26.1181 23.9177 26.0216 24.8747C26.0098 24.9919 26.0481 25.1087 26.1274 25.1961C26.2064 25.2836 26.3187 25.3333 26.4362 25.3333H31.1283C31.3097 25.3333 31.4701 25.2161 31.525 25.0435C31.8403 24.056 32.0002 23.0323 32.0002 22C32.0002 20.9677 31.8403 19.9439 31.5249 18.9564Z" fill="white"/>
<path d="M25.8005 17.4859C25.8343 17.6865 26.0081 17.8334 26.2115 17.8334H30.4173C30.5642 17.8334 30.7005 17.7557 30.7758 17.6295C30.8506 17.503 30.8535 17.3463 30.7831 17.2173C29.5322 14.9252 27.3834 13.1793 24.8866 12.4273C24.7259 12.3777 24.5489 12.4326 24.4419 12.5648C24.3357 12.6975 24.3202 12.881 24.4029 13.0291C25.0099 14.1171 25.4933 15.6581 25.8005 17.4859Z" fill="white"/>
<path d="M24.7623 18.6667H19.2374C19.0245 18.6667 18.8459 18.827 18.8231 19.0386C18.7194 20.0005 18.6665 20.997 18.6665 22.0001C18.6665 23.0031 18.7194 23.9996 18.8231 24.9615C18.8459 25.1731 19.0245 25.3334 19.2374 25.3334H24.7623C24.9751 25.3334 25.1537 25.1731 25.1765 24.9615C25.2802 23.9996 25.3331 23.0031 25.3331 22.0001C25.3331 20.997 25.2802 20.0005 25.1765 19.0386C25.1537 18.827 24.9751 18.6667 24.7623 18.6667Z" fill="white"/>
<path d="M13.5827 17.8333H17.7885C17.9919 17.8333 18.1656 17.6864 18.1994 17.4858C18.5067 15.658 18.9901 14.1171 19.5971 13.029C19.6797 12.8809 19.6643 12.6974 19.5581 12.5648C19.4515 12.4329 19.2752 12.3772 19.1133 12.4272C16.6166 13.1792 14.4677 14.9252 13.2169 17.2173C13.1465 17.3463 13.1493 17.503 13.2242 17.6295C13.2995 17.7556 13.4358 17.8333 13.5827 17.8333Z" fill="white"/>
<path d="M17.8728 25.1962C17.9521 25.1087 17.9904 24.992 17.9786 24.8748C17.8821 23.9178 17.8333 22.9501 17.8333 22C17.8333 21.0499 17.8821 20.0823 17.9786 19.1252C17.9904 19.0081 17.9521 18.8913 17.8728 18.8038C17.7939 18.7163 17.6816 18.6667 17.564 18.6667H12.872C12.6905 18.6667 12.5302 18.7839 12.4753 18.9564C12.1599 19.944 12 20.9677 12 22C12 23.0323 12.1599 24.0561 12.4753 25.0437C12.5302 25.2162 12.6905 25.3334 12.872 25.3334H17.564C17.6816 25.3333 17.7939 25.2837 17.8728 25.1962Z" fill="white"/>
<path d="M18.1994 26.5142C18.1656 26.3136 17.9918 26.1667 17.7884 26.1667H13.5827C13.4358 26.1667 13.2995 26.2444 13.2242 26.3706C13.1493 26.4971 13.1465 26.6538 13.2169 26.7827C14.4677 29.0748 16.6165 30.8208 19.1133 31.5728C19.1527 31.585 19.1931 31.5907 19.2333 31.5907C19.3574 31.5907 19.4775 31.5349 19.5581 31.4352C19.6643 31.3026 19.6797 31.1191 19.5971 30.971C18.99 29.8829 18.5066 28.342 18.1994 26.5142Z" fill="white"/>
<path d="M30.4172 26.1667H26.2115C26.0081 26.1667 25.8343 26.3136 25.8005 26.5142C25.4933 28.342 25.0099 29.8829 24.4029 30.971C24.3202 31.1191 24.3357 31.3026 24.4419 31.4352C24.5225 31.5349 24.6425 31.5907 24.7666 31.5907C24.8065 31.5907 24.8472 31.585 24.8867 31.5728C27.3834 30.8208 29.5323 29.0748 30.7831 26.7827C30.8535 26.6538 30.8506 26.4971 30.7758 26.3706C30.7004 26.2444 30.5642 26.1667 30.4172 26.1667Z" fill="white"/>
<path d="M19.1594 17.6832C19.2383 17.7784 19.3559 17.8334 19.4796 17.8334H24.5203C24.644 17.8334 24.7616 17.7784 24.8406 17.6832C24.9199 17.588 24.9525 17.4627 24.9301 17.341C24.3311 14.0964 23.1808 12 22 12C20.8192 12 19.6688 14.0964 19.0699 17.341C19.0475 17.4627 19.0801 17.588 19.1594 17.6832Z" fill="white"/>
</svg>
